# xmcd CD database file
#
# Track frame offsets:
#	183
#	14970
#	34278
#	51703
#	67955
#	84420
#	98063
#	110725
#	125465
#	138018
#	161805
#	176290
#
# Disc length: 2530 seconds
#
# Revision: 0
# Processed by: cddbd v1.4PL0 Copyright (c) Steve Scherf et al.
# Submitted via: CDex 1.40Beta8
#
DISCID=a709e00c
DTITLE=Living Chicago Blues - Volume 4
DYEAR=1980
DGENRE=Blues
TTITLE0=Hard Times/A.C. Reed
TTITLE1=She's Fine/A.C. Reed
TTITLE2=Moving Out Of The Ghetto/A.C. Reed
TTITLE3=Going To New York/A.C. Reed
TTITLE4=Big Leg Woman/Scotty and the Ribtips
TTITLE5=Careless With Your Love/Scotty and the Ribtips
TTITLE6=Road Block/Scotty and the Ribtips
TTITLE7=Poison Ivy/Scotty and the Ribtips
TTITLE8=I Dare You/Lovie Lee and Carey Bell
TTITLE9=Nobody Knows My Troubles/Lovie Lee and Carey Bell
TTITLE10=Sweet Little Girl/Lovie Lee and Carey Bell
TTITLE11=Naptown/Lovie Lee and Carey Bell
EXTD=YEAR: 1980 ID3G: 0
EXTT0=
EXTT1=
EXTT2=
EXTT3=
EXTT4=
EXTT5=
EXTT6=
EXTT7=
EXTT8=
EXTT9=
EXTT10=
EXTT11=
PLAYORDER=
